<svg xmlns="http://www.w3.org/2000/svg" width="48" height="12" fill="none" xmlns:v="https://vecta.io/nano"><path fill-rule="evenodd" d="M43.978 0l-7.533.833v.942h7.533V0zM29.964.119h-2.123V3.36h-.64v1.592h.64v3.627c0 1.1.858 3.101 2.794 3.101l1.338-.033v-1.509h-.462c-.797-.038-1.539-.472-1.539-1.844V4.947h2.001V3.36h-2.001V.119h-.008zm-3.368.018H7.091v8.112h-.03L2.192.137H0v11.586h2.23V4.107h.033l4.668 7.617h2.39V1.801h17.285l-.01-1.663zm-7.884 7.322c0-2.489-1.778-4.508-4.158-4.508s-4.302 2.019-4.302 4.508 1.925 4.505 4.302 4.505c2.21 0 3.477-1.138 4.036-2.943h-1.971a2.26 2.26 0 0 1-2.065 1.27c-1.067 0-1.966-.889-2.227-2.093h6.329a4.86 4.86 0 0 0 .056-.724v-.015zm-6.349-.889c.302-1.125 1.168-1.938 2.189-1.938s1.846.825 2.047 1.943h-4.236V6.57zM46.46 9.021c-.209 0-.412.062-.586.178s-.308.28-.388.473-.101.405-.06.609.141.392.288.54.335.248.54.288.416.02.609-.06.357-.215.473-.388.178-.377.178-.586c0-.28-.111-.548-.309-.745s-.466-.309-.745-.309zm0 2.016c-.126 0-.251-.024-.367-.073s-.222-.119-.31-.209-.158-.196-.205-.313-.07-.242-.068-.368c.003-.187.061-.368.167-.522s.255-.273.428-.342.363-.086.546-.048.35.129.481.262.22.301.256.485.016.373-.055.545-.193.319-.348.423-.337.159-.524.16zm-6.129-8.086c2.38 0 4.158 2.019 4.158 4.508v.015c0 .242-.018.484-.053.724h-6.329c.262 1.204 1.158 2.093 2.225 2.093a2.27 2.27 0 0 0 2.067-1.27h1.971c-.452 1.968-1.829 2.943-4.038 2.943-2.375 0-4.3-2.016-4.3-4.505s1.92-4.508 4.3-4.508zm-.002 1.681c-1.021 0-1.887.813-2.189 1.938v.005h4.236c-.198-1.117-1.026-1.943-2.047-1.943zm-17.3-.31c-1.209 0-1.623.678-1.623 1.044l.01.01c-.016.688.936.872 2.054 1.087 1.571.302 3.469.667 3.469 2.586 0 2.469-2.159 2.951-3.822 2.951-1.938 0-3.652-.706-3.716-2.969h1.778c0 .719.465 1.425 1.846 1.425s1.854-.307 1.854-1.057-.982-.939-2.108-1.162c-1.517-.299-3.296-.65-3.296-2.47 0-1.242.782-2.943 3.426-2.943 1.658 0 3.561.622 3.736 2.794h-1.857l-.002-.008c-.099-.332-.382-1.287-1.75-1.287zm12.125 7.401h-2.23V.137h2.23v11.586zm11.705-1.698a.33.33 0 0 1-.227.1h.01l.371.574h-.117l-.376-.576h-.333v.576h-.109V9.453h.47c.279 0 .404.119.404.343a.33.33 0 0 1-.093.23zm-.674.004h.267l-.01.005c.188 0 .394-.038.394-.236s-.165-.254-.315-.254h-.335v.485z" fill="#000"/></svg>