<svg xmlns="http://www.w3.org/2000/svg" width="28" height="29" fill="none" xmlns:v="https://vecta.io/nano"><path fill-rule="evenodd" d="M6.223 26.64A14 14 0 0 0 14.002 29c3.712-.004 7.272-1.48 9.897-4.105S28 18.71 28.004 14.998A14 14 0 0 0 19.36 2.062 14 14 0 0 0 4.101 5.097a14 14 0 0 0-3.035 15.259 14 14 0 0 0 5.157 6.284zm.82-22.055c2.06-1.376 4.482-2.11 6.959-2.11a12.54 12.54 0 0 1 12.524 12.523c0 2.477-.734 4.899-2.11 6.959s-3.332 3.666-5.621 4.614-4.807 1.196-7.237.713-4.662-1.676-6.413-3.428-2.945-3.984-3.428-6.413-.235-4.948.713-7.237 2.554-4.245 4.614-5.621zm1.225 9.537H19.75v1.47H8.268v-1.47zm8.386-4.093h.028V6.664h-.557-.871v-.807h4.401v.807h-1.408v5.246h-2.894L11.38 7.409h-.03v3.332.364h1.428v.804H8.364v-.804h1.433v-.364-4.077H8.35v-.807h4.603l3.701 4.172zm.361 10.06h1.532v-2.258h-1.381v.626c-.901-.483-2.331-.718-3.464-.718-2.298 0-4.778.413-4.778 1.924 0 1.544 2.478 1.817 4.528 2.043 1.447.159 2.681.295 2.681.838 0 .516-1.05.782-1.915.782-1.965 0-3.414-.67-3.629-1.632H9.04v2.397h1.406l-.013-.599c1.042.422 2.785.681 4.068.681 2.297 0 4.595-.494 4.595-1.962 0-1.57-2.602-1.863-4.679-2.097-1.381-.155-2.53-.285-2.53-.746 0-.609.9-.782 1.865-.782 1.466 0 3.013.54 3.263 1.503z" fill="#1d1d1b"/></svg>