<svg xmlns="http://www.w3.org/2000/svg" width="114" height="17" fill="#000" xmlns:v="https://vecta.io/nano"><path d="M65.992.66v15.165s.003.66.681.66h1.867c.681-.003.678-.66.678-.66V.66c.003 0 0-.66-.678-.66h-1.867c-.681 0-.681.66-.681.66zm32.271 15.167V9.142c0-2.991-2.716-4.825-4.7-4.825-1.972 0-3.65.497-4.94 1.509-.114.093-.438.186-.438-.084l-.006-.689s0-.657-.678-.657h-1.609s-.678 0-.678.657l-.003 10.778c.003.66.681.66.681.66h1.612c.675-.003.675-.66.672-.66l.003-5.267c.003-1.456 1.014-3.942 4.352-3.942 2.383 0 2.764 1.587 2.764 2.523l.003 6.686c0 .66.681.657.681.657l1.612.003c-.003-.003.675-.003.672-.663zM70.998 7.726c-.006.024-.006.047-.006.068l.006-.068zm35.757-1.049c2.323 0 4.196 1.546 4.205 3.947.006 2.474-1.876 4.064-4.199 4.064s-4.096-1.767-4.096-4.096c-.003-2.305 1.923-3.916 4.09-3.916zm3.884 8.782c.198-.151.402-.026.396.32 0 .05 0 .712.682.712h1.611s.675 0 .675-.66V.66c0-.66-.675-.657-.675-.657h-1.611s-.682-.003-.688.657l.003 4.79c-.006.346-.195.465-.39.32-4.382-3.253-11.045 0-11.033 4.817.012 5.386 6.582 8.287 11.03 4.872z"/><path d="M74.253 11.784c1.537-.788 5.327-.709 5.678-.666.177.023.432.145.429.387-.012 3.174-4.49 3.602-6.204 2.509-.357-.23-.585-.639-.6-1.003-.012-.538.177-.965.696-1.227zm-1.996 4.27c2.104 1.45 6.015 1.099 7.794-.41.216-.183.465-.032.537.18.174.532.423.657.969.66h1.114c.675 0 .678-.66.675-.66l.003-6.822c0-3.709-3.572-4.695-6.312-4.695-3.061.003-5.063 1.131-6.041 3.421-.099.233.186.512.432.512l2.089.006c.357 0 .714-.294.822-.465.543-.881 1.423-1.209 3.07-1.209 1.822 0 2.302.392 2.893 1.209.381.523-.132 1.07-.426 1.084l-6.333.561c-1.732.265-3.055 1.887-3.043 3.581.003 1.113.54 2.212 1.756 3.046zm-15.027.857c5.426 0 7.698-3.41 7.695-6.299-.003-2.764-2.284-6.299-7.74-6.299-5.45-.003-7.728 3.523-7.728 6.305 0 2.942 2.302 6.293 7.773 6.293zm0-2.256c-3.172 0-4.625-2.276-4.625-4.023s1.519-4.046 4.58-4.046 4.589 2.288 4.589 4.032c0 1.765-1.498 4.038-4.544 4.038zM36.419 9.723l.003 6.098c0 .66-.681.657-.681.657h-1.522s-.681.009-.687-.657L33.534.657c0-.657.678-.657.678-.657h9.874c2.233 0 4.781 1.491 4.781 4.535 0 1.48-.873 2.846-2.107 3.68-.099.064-.174.195-.126.23.843.642.852 1.169 1.15 2.27.534 1.997.597 3.735 1.411 5.41.057.116-.084.355-.267.355l-1.966.006c-.645 0-.999-.297-1.122-.663-.705-2.09-.219-4.116-1.69-6.098-.345-.465-1.107-.657-1.999-.657h-5.048c-.006 0-.681 0-.684.657zm6.705-2.843c0 .003 2.65.006 2.65-2.346s-2.65-2.355-2.65-2.355H37.1c-.678 0-.678.663-.678.663v3.381c0 .663.714.663.678.663l6.023-.006zm-16.214.355H10.244c-2.47 0-4.211 1.84-4.211 4s1.843 4.046 4.211 4.046h20.382v1.198H10.223c-3.283 0-5.492-2.433-5.492-5.232s2.218-5.221 5.483-5.221h15.412V4.392H4.731v12.087H3.359V3.18H26.91v4.055zM8.968 13.308h21.663v-1.209H10.249v-1.634h15.417c3.265 0 5.483-2.418 5.483-5.221S28.875 0 25.589 0H0v16.479h1.375V1.213h24.259c2.374 0 4.226 1.889 4.226 4.046s-1.753 3.997-4.226 3.997H8.968v4.052z"/></svg>