<svg xmlns="http://www.w3.org/2000/svg" width="78" height="12" fill="none" xmlns:v="https://vecta.io/nano"><path fill-rule="evenodd" d="M10.97 11.664h3.414V.219H10.97v11.446zm6.135 0h8.836V9.389h-5.422V7.046h4.753V4.837h-4.753V2.495h5.422V.219h-8.835v11.446zM35.28 7.013L32.267.219h-4.451v11.446h2.744V4.837l3.012 6.827h2.242l3.246-6.994v6.995h3.414V.219h-4.05L35.28 7.013zm28.88.234L59.875.219h-3.749v11.446h2.41V4.603l4.317 7.061h3.716V.219h-2.41v7.028zm-19.002 4.418h8.835V9.389h-5.422V7.046h4.752V4.837h-4.752V2.495h5.422V.219h-8.835v11.446zM7.29 5.473L3.776 3.8c-.975-.44-1.004-2.744 4.618-1.037V.587C7.223.186 4.011-.584 1.601.755s-1.841 4.652 0 5.757c.803.435 1.908.837 3.313 1.439 1.165.499 1.874 3.046-4.786 1.305v2.242C1.5 12 6.52 12.535 7.993 10.895c1.839-2.048 1.004-4.719-.702-5.422zm68.464 0L72.241 3.8c-.975-.44-1.004-2.744 4.618-1.037V.587c-1.171-.402-4.384-1.172-6.793.167s-1.841 4.652 0 5.757c.803.435 1.907.837 3.313 1.439 1.164.499 1.874 3.046-4.787 1.305v2.242c1.373.502 6.393 1.037 7.865-.603 1.838-2.048 1.004-4.719-.703-5.422z" fill="#000"/></svg>