<svg xmlns="http://www.w3.org/2000/svg" width="94" height="12" fill="none" xmlns:v="https://vecta.io/nano"><path fill-rule="evenodd" d="M31.282 3.758c1.352-1.47 3.738-1.601 4.534-1.601.388 0 1.4.033 2.389.344 2.024.636 3.039 1.994 3.039 3.48 0 .295-.024.916-.436 1.634-.434.768-1.737 2.222-4.921 2.222-1.157 0-1.906-.181-2.338-.292-2.796-.802-3.087-2.715-3.138-3.384-.022-.408-.046-1.438.871-2.403zm-2.485 6.292c2.438 1.83 5.886 1.944 7.045 1.944 2.194 0 4.388-.408 6.076-1.324 1.086-.588 3.137-2.06 3.137-4.624 0-.654-.169-2.436-1.979-3.923C41.268.654 38.496 0 35.843 0c-.966 0-3.86.082-6.177 1.356-1.109.604-3.137 2.125-3.087 4.707.024.704.217 2.484 2.219 3.988zM52.809.36h15.209l.171 2.181h-5.868v9.087h-3.814V2.541h-5.881L52.809.36zM14.311 7.816c-.322.483-.504.664-.76.869-.657.536-1.752 1.121-3.951 1.121l-.45.009c-.81 0-2.543-.054-4.059-1.108-1.299-.905-1.405-2.192-1.405-2.666 0-1.548.925-2.372 1.533-2.796 1.039-.684 2.586-1.075 4.16-1.075l.221.01c1.492 0 2.52.38 3.012.616.852.427 1.28.917 1.517 1.186l4.12-.502c-.084-.158-.192-.316-.298-.473-.279-.365-.98-1.141-2.264-1.789C13.338.065 10.432.002 9.6.002H9.58c-2.206 0-4.443.254-6.379 1.224C1.074 2.288 0 4.145 0 5.954c0 1.921.951 3.596 2.715 4.678C4.424 11.679 6.87 12 9.175 12l.425-.006c3.577-.033 5.511-.868 6.728-1.66.918-.6 1.325-1.107 1.557-1.454.193-.285.463-.732.515-1.061l-4.089-.003zM89.557.36l-4.381 4.587c-.232.227-.377.511-.377.511s-.143-.284-.377-.51A3000.73 3000.73 0 0 1 80.149.36h-4.155l6.904 6.908v4.35h3.811v-4.35L93.631.36h-4.074z" fill="#000"/></svg>