<svg xmlns="http://www.w3.org/2000/svg" width="134" height="12" fill="none" xmlns:v="https://vecta.io/nano"><path d="M117.706 0h2.805v9.193h3.588V0h2.805v9.193h2.737c.237 0 .464-.095.632-.262s.262-.395.262-.632V0h2.806v8.299a3.7 3.7 0 0 1-.282 1.416c-.186.449-.459.857-.803 1.201a3.69 3.69 0 0 1-1.2.802c-.449.186-.931.282-1.417.281h-11.936V0h.003zm-16.087 3.702c0-.486.096-.968.282-1.417a3.7 3.7 0 0 1 .803-1.201c.344-.344.752-.616 1.201-.802a3.7 3.7 0 0 1 1.417-.282h6.437a3.7 3.7 0 0 1 3.701 3.701v8.297h-2.806V8.263h-8.228V12h-2.805l-.002-8.298zm11.034 0c0-.237-.094-.465-.262-.632s-.395-.262-.632-.263h-6.438c-.494.001-.894.4-.894.895v1.755h8.228l-.002-1.755zm-12.932.86a3.7 3.7 0 0 1-1.861 3.211L99.742 12h-3.066l-1.663-3.737h-5.362V12h-2.805V0h9.175a3.7 3.7 0 0 1 1.416.282 3.7 3.7 0 0 1 2.003 2.003 3.7 3.7 0 0 1 .282 1.416v.861h-.001zm-3.701.894c.237 0 .465-.094.633-.262s.262-.395.263-.633v-.86c0-.237-.095-.465-.263-.633s-.395-.262-.633-.262h-6.368v2.65h6.368zm-16.522-.894a3.7 3.7 0 0 1-1.862 3.211L79.518 12h-3.066l-1.663-3.737h-5.362V12h-2.805V0h9.174a3.7 3.7 0 0 1 1.416.282 3.7 3.7 0 0 1 2.003 2.003 3.7 3.7 0 0 1 .281 1.416l.001.861zm-3.701.894c.237 0 .465-.095.632-.263s.262-.395.262-.632v-.86c0-.237-.095-.465-.262-.632s-.395-.262-.632-.263h-6.369v2.65h6.369zM50.602 3.702A3.7 3.7 0 0 1 54.303.001h6.438a3.7 3.7 0 0 1 2.617 1.084 3.7 3.7 0 0 1 1.084 2.617v8.297h-2.806V8.263h-8.229V12h-2.805V3.702zm11.033 0c0-.237-.094-.465-.262-.633s-.395-.262-.633-.262h-6.437c-.237 0-.465.094-.633.262s-.262.395-.263.633v1.755h8.228l-.001-1.755zM49.726 0v2.805H45.08l-.002 9.194h-2.858V2.806h-4.645L37.572 0h12.154zM26.253 3.702c0 .237.095.465.262.633s.395.262.633.262h5.825a3.7 3.7 0 0 1 3.701 3.701A3.7 3.7 0 0 1 32.974 12l-9.087-.001V9.194h9.086c.237 0 .465-.094.633-.262s.262-.395.263-.632-.095-.465-.263-.633-.396-.262-.633-.262h-5.824a3.7 3.7 0 0 1-3.702-3.701A3.7 3.7 0 0 1 27.149.002h8.715v2.806h-8.716c-.117 0-.234.023-.342.068s-.207.111-.29.194-.149.182-.194.29-.068.225-.068.342zm-9.817.894h4.461v2.806h-4.461V4.596zM3.701 12a3.7 3.7 0 0 1-2.617-1.085A3.7 3.7 0 0 1 0 8.298V3.701a3.7 3.7 0 0 1 1.084-2.617A3.7 3.7 0 0 1 2.284.282 3.7 3.7 0 0 1 3.701 0h9.986v2.806H3.701c-.237 0-.465.095-.633.263s-.262.395-.263.633l.001 4.596c0 .117.023.234.068.342s.111.207.194.29.182.149.29.194.225.068.342.068h6.549c.237 0 .465-.094.633-.262s.263-.395.263-.632v-.895H6.903V4.597h7.048v3.701A3.7 3.7 0 0 1 10.25 12H3.701z" fill="#000"/></svg>