<svg xmlns="http://www.w3.org/2000/svg" width="31" height="51" fill="none" xmlns:v="https://vecta.io/nano"><path d="M7.336.15L.004 31.491c-.026.124.065.241.19.241h3.094c.092 0 .17-.065.19-.15L10.777.241c.026-.124-.065-.241-.19-.241H7.526c-.092 0-.17.065-.19.15zm3.512 19.287L8.03 31.491c-.026.124.065.241.19.241h3.094c.092 0 .17-.065.19-.15l2.806-12.054c.026-.124-.065-.241-.19-.241h-3.081a.19.19 0 0 0-.19.15zM11.758 51h3.094c.092 0 .17-.065.19-.15l7.293-31.328c.026-.124-.065-.241-.19-.241h-3.061c-.092 0-.17.065-.19.15l-7.325 31.328c-.026.124.065.241.19.241zm15.135-31.563l-2.819 12.054c-.026.124.065.241.19.241h3.094c.092 0 .17-.065.19-.15l2.806-12.054c.026-.124-.065-.241-.19-.241h-3.081a.19.19 0 0 0-.19.15z" fill="#000"/></svg>