<svg xmlns="http://www.w3.org/2000/svg" width="98" height="19" fill="#000" xmlns:v="https://vecta.io/nano"><path d="M9.306.713l2.004 6.099h.057L9.364.713h-.057zm8.747 6.914l-.057.043-5.182 3.78 1.975 6.127.014.043.043-.028-1.961-6.128 5.181-3.793-.014-.044zm-9.176 6.7L3.68 18.079l.044.028 5.182-3.766-.028-.014zm29.618-4.434c0 .589-.254.764-1.209 1.097-.764.287-1.352.414-1.527.414-.318 0-.461-.239-.461-.732 0-1.176.334-2.608 1.575-2.608 1.145 0 1.622 1.241 1.622 1.829zm-12.407 5.138c0-.096-.015-.159-.062-.207-.128-.128-.605-.207-.843-.446-.174-.175-.287-.477-.287-1.176v-2.689c0-.207.048-.334.255-.334h2.736c.207 0 .254.126.254.334v2.689c0 .7-.111 1.001-.286 1.176-.238.238-.716.318-.843.446-.048.048-.064.111-.064.206 0 .413.064.828.127.891s.159.08.367.08h4.469c.207 0 .302-.015.366-.08s.128-.477.128-.89c0-.096-.017-.159-.064-.207-.112-.111-.605-.207-.844-.446-.174-.175-.27-.509-.27-1.05V5.9c0-.382.096-.637.238-.779.255-.255.764-.303.875-.415.048-.048.064-.142.064-.222 0-.286-.064-.716-.128-.779s-.127-.08-.366-.08H27.6c-.174 0-.238.016-.286.064s-.096.382-.096.811c0 .079.016.175.048.206.079.081.477.208.637.367.174.175.238.366.238.907v2.115c0 .08-.08.191-.191.191h-2.863c-.112 0-.191-.111-.191-.191V5.98c0-.541.064-.732.239-.907.159-.159.557-.286.637-.367.032-.031.048-.126.048-.206 0-.429-.048-.763-.096-.811s-.112-.064-.286-.064h-4.31c-.238 0-.302.016-.367.08s-.127.493-.127.779c0 .08.016.175.064.223.111.112.62.16.875.415.142.142.238.397.238.779v7.428c0 .541-.096.875-.27 1.05-.238.238-.732.334-.843.446-.048.048-.064.111-.064.206 0 .413.064.828.127.891s.128.08.367.08h4.469c.207 0 .302-.015.366-.08s.126-.477.126-.89zm14.778-.223c.461-.461.573-.732.573-.955a.8.8 0 0 0-.255-.62c-.208-.207-.382-.239-.541-.239a.55.55 0 0 0-.461.207c-.7.7-1.591 1.081-2.673 1.081-1.097 0-1.782-.731-1.782-1.193 0-.127.112-.239.397-.318 3.055-.954 4.327-1.59 4.804-2.068.27-.254.382-.557.382-.827 0-1.209-1.749-3.356-4.437-3.356a4.39 4.39 0 0 0-3.085 1.287c-.843.844-1.368 2.036-1.368 3.659 0 1.559.493 2.641 1.352 3.499s2.1 1.288 3.452 1.288c1.384 0 2.688-.492 3.642-1.448v.001zm4.979-7.746a.25.25 0 0 0-.286-.286h-3.07c-.175 0-.238 0-.287.064-.063.064-.126.493-.126.78 0 .079.032.142.063.19.112.143.35.191.557.366.143.143.207.446.207.907v4.247c0 .541-.064.891-.224 1.05-.238.238-.636.35-.747.461-.032.033-.048.096-.048.208 0 .413.064.811.127.874.048.048.127.08.302.08h4.088c.175 0 .254-.032.302-.08.063-.063.111-.461.111-.874 0-.112-.016-.175-.048-.208-.111-.111-.477-.222-.716-.461-.159-.159-.206-.509-.206-1.05V7.061h0zm-1.702-4.009c-.875 0-1.591.685-1.591 1.544 0 .875.716 1.559 1.591 1.559.891 0 1.607-.684 1.607-1.559 0-.859-.716-1.544-1.607-1.544zM56.47 9.241c0-1.782-.923-2.688-2.37-2.688-.684 0-1.416.222-2.148.668-.255.159-.334.206-.398.206-.255 0-.08-.652-.541-.652h-2.799c-.176 0-.223 0-.287.064-.08.08-.143.493-.143.78 0 .079.016.142.064.19.127.128.366.175.556.366.144.143.206.446.206.907v4.247c0 .542-.048.891-.206 1.05-.223.222-.604.35-.716.461-.032.032-.048.095-.048.207 0 .413.048.811.112.874.048.048.142.08.318.08h4.009c.191 0 .254-.032.301-.08.081-.079.144-.461.144-.874 0-.112-.016-.175-.048-.207-.127-.126-.492-.239-.716-.461-.159-.159-.238-.509-.238-1.05v-3.133c0-1.288.715-1.686 1.24-1.686.541 0 .843.398.843 1.241v4.407c0 1.176.748 1.956 2.1 1.956 1.495 0 2.131-1.081 2.131-1.304 0-.191-.301-.573-.492-.573-.223 0-.541.286-.7.286-.111 0-.174-.08-.174-.334V9.241h-.001zm29.474 5.567c.461-.461.573-.732.573-.955a.8.8 0 0 0-.255-.62.7.7 0 0 0-.541-.239.55.55 0 0 0-.462.207c-.7.7-1.591 1.081-2.673 1.081-1.097 0-1.782-.731-1.782-1.193 0-.127.111-.239.398-.318 3.054-.954 4.326-1.59 4.804-2.068.27-.254.382-.557.382-.827 0-1.209-1.75-3.356-4.438-3.356-1.114 0-2.243.444-3.086 1.288s-1.367 2.035-1.367 3.659c0 1.559.493 2.641 1.352 3.5s2.1 1.288 3.451 1.288c1.385 0 2.69-.493 3.644-1.448zm-2.37-4.915c0 .589-.255.764-1.209 1.097-.764.287-1.352.414-1.528.414-.317 0-.461-.239-.461-.732 0-1.177.334-2.609 1.575-2.609 1.145 0 1.623 1.241 1.623 1.829zm-17.179 4.915c.461-.461.574-.732.574-.955a.8.8 0 0 0-.255-.62c-.206-.207-.381-.239-.541-.239-.224 0-.318.064-.462.207-.7.7-1.591 1.081-2.673 1.081-1.097 0-1.782-.731-1.782-1.193 0-.127.112-.239.399-.318 3.053-.954 4.326-1.59 4.803-2.068.271-.254.382-.557.382-.827 0-1.209-1.749-3.356-4.438-3.356-1.113 0-2.242.444-3.085 1.288s-1.368 2.035-1.368 3.659c0 1.559.493 2.641 1.352 3.5s2.1 1.288 3.452 1.288c1.384 0 2.689-.493 3.642-1.448zm-2.369-4.915c0 .589-.255.764-1.209 1.097-.764.287-1.352.414-1.527.414-.318 0-.461-.239-.461-.732 0-1.177.334-2.609 1.574-2.609 1.145 0 1.623 1.241 1.623 1.829zm31.843-.652c0-1.782-.922-2.688-2.369-2.688-.684 0-1.416.222-2.148.668-.255.159-.335.206-.398.206-.255 0-.08-.652-.541-.652h-2.8c-.175 0-.223 0-.286.064-.08.08-.143.493-.143.78 0 .079.016.142.064.19.127.128.365.175.557.366.143.143.207.446.207.907v4.247c0 .541-.048.891-.206 1.05-.224.222-.605.35-.716.461-.032.033-.048.096-.048.208 0 .413.048.811.11.874.049.048.144.08.319.08h4.008c.191 0 .255-.032.303-.08.08-.08.142-.461.142-.874 0-.112-.015-.175-.048-.208-.127-.126-.493-.239-.716-.461-.159-.159-.24-.509-.24-1.05v-3.133c0-1.288.716-1.686 1.242-1.686.541 0 .843.398.843 1.24v4.407c0 1.177.748 1.956 2.1 1.956 1.495 0 2.131-1.081 2.131-1.304 0-.191-.302-.573-.493-.573-.223 0-.541.286-.7.286-.112 0-.176-.08-.176-.335V9.24h-.001 0zM70.896 3.34h-3.054c-.191 0-.271 0-.317.08-.064.079-.113.476-.113.747a.47.47 0 0 0 .048.223c.111.112.541.223.732.414.159.159.239.477.239 1.685v6.363c0 1.066-.111 1.4-.238 1.527-.223.222-.604.35-.716.461-.031.033-.048.096-.048.207 0 .413.048.811.111.874.048.048.111.08.318.08h3.993c.207 0 .27-.032.317-.08.064-.063.143-.461.143-.874 0-.112-.015-.175-.064-.207-.111-.111-.493-.239-.7-.461-.174-.159-.238-.509-.238-1.05v-.365c0-.207.064-.271.414-.621.159-.143.302-.253.413-.253.159 0 .286.111 2.035 3.642.111.223.159.27.445.27h2.593c.191 0 .255-.032.302-.08.063-.063.127-.461.127-.874 0-.112-.016-.175-.048-.207-.111-.111-.779-.191-.923-.461l-2.37-4.263c0-.207 1.018-1.225 1.861-1.892.541-.43.891-.144.891-.652 0-.589-.079-.796-.191-.796H73.01c-.334 0-.366.191-.366.907 0 .238.667.27.667.604 0 .286-1.622 1.846-1.892 1.846-.096 0-.112-.064-.112-.334V3.784c.002-.254-.174-.445-.412-.445M8.872.845l2.112 6.422 6.76.024-5.455 3.992 2.067 6.437-5.483-3.954L3.39 17.72l2.067-6.437L0 7.291l6.76-.024L8.872.845h0zm86.984 2.159a1.58 1.58 0 0 1 .77.202 1.45 1.45 0 0 1 .578.574 1.57 1.57 0 0 1 .212.783c0 .273-.072.541-.208.778a1.47 1.47 0 0 1-.576.576 1.57 1.57 0 0 1-.777.206c-.272 0-.54-.071-.776-.206a1.49 1.49 0 0 1-.576-.576 1.58 1.58 0 0 1 .005-1.562c.14-.25.334-.441.58-.574a1.58 1.58 0 0 1 .77-.202h0zm.002.306a1.27 1.27 0 0 0-.617.16c-.197.108-.353.261-.467.463a1.27 1.27 0 0 0-.168.628c-.001.22.056.437.164.629.111.198.266.353.465.464a1.25 1.25 0 0 0 1.246 0 1.19 1.19 0 0 0 .465-.464 1.26 1.26 0 0 0 .167-.625 1.26 1.26 0 0 0-.171-.631c-.107-.196-.269-.357-.466-.463a1.27 1.27 0 0 0-.616-.16zm-.706 2.089V3.743h.336l.529.004c.111.009.197.032.258.067s.119.092.155.159a.45.45 0 0 1 .063.236c.002.114-.04.224-.118.307s-.187.137-.328.157a.4.4 0 0 1 .115.063.74.74 0 0 1 .112.126 4.11 4.11 0 0 1 .122.202l.196.334h-.416l-.138-.268c-.093-.18-.171-.294-.232-.34a.37.37 0 0 0-.232-.071h-.087v.68h-.336v-.001zm.336-.941h.136c.194 0 .315-.008.361-.023a.22.22 0 0 0 .111-.077c.028-.037.042-.082.042-.128s-.014-.088-.041-.122a.23.23 0 0 0-.112-.078 1.75 1.75 0 0 0-.361-.024h-.136v.452z"/></svg>