<svg xmlns="http://www.w3.org/2000/svg" width="44" height="20" fill="#000" xmlns:v="https://vecta.io/nano"><path d="M25.254 8.936c0-.838.678-1.436 1.715-1.436 1.675 0 2.991 1.157 3.669 3.152h.359l.399-3.112c-.758-.359-1.994-.718-4.068-.718-3.111 0-5.145 1.396-5.185 3.83 0 5.306 6.94 3.072 6.94 6.184 0 .957-.678 1.596-1.835 1.596-1.476 0-3.151-1.157-4.347-3.67h-.359l-.518 3.271c.558.359 2.393 1.037 5.066 1.037 2.832 0 4.986-1.516 5.065-3.989.12-4.987-6.9-3.112-6.9-6.144zm13.792-2.074c-3.909 0-6.781 2.314-6.781 6.263 0 3.591 2.393 6.024 5.983 6.024 3.111 0 5.185-1.795 5.664-4.508l-.319-.08c-.598 1.157-1.835 1.995-3.35 1.995-2.154 0-3.749-1.516-3.909-4.668h7.618c.359-3.112-1.396-5.027-4.906-5.027zm.838 4.388h-3.51c.04-1.915.638-3.75 1.954-3.75 1.197 0 1.875 1.516 1.555 3.75zM19.264 0c-1.516 0-2.592 1.037-2.592 2.434s1.077 2.473 2.592 2.473c1.476 0 2.593-1.077 2.593-2.473C21.817 1.037 20.74 0 19.264 0zm-3.39 13.843L13.92 9.295l-.199-.439-.678-1.596H7.738v.319c.638.04 1.037.399 1.396 1.277l.678 1.476-1.675 3.551-2.872-6.622H0v.319c.598 0 1.037.519 1.556 1.596l4.587 9.974h.359l3.63-8.139 3.749 8.139h.359l1.994-4.508-.359-.798z"/></svg>