<svg xmlns="http://www.w3.org/2000/svg" width="131" height="12" fill="none" xmlns:v="https://vecta.io/nano"><path fill-rule="evenodd" d="M89.572 11.219V5.967l2.617-4.797h5.025l-2.812 6.227-.065.131-.049.147-.033.161-.049.163-.033.147-.016.163-.016.161.016.147.016.163.033.147.065.131.081.129.114.131.145.098.179.098.195.081.259.065.277.047.326.033.39.033h12.308l-.829 2.163H93.409l-.763-.033-.683-.033-.618-.081-.536-.114-.505-.131-.422-.161-.309-.163zm0-7.771l1.154-2.276h-1.154v2.276zm24.127-2.277l-3.008 5.495-.243.456-.179.455-.147.422-.114.422-.064.391-.034.39.016.342.065.341.098.309.163.292.212.261.243.243.326.212.358.179.438.161.489.131.553.114.601.081.683.033.763.033h14.325l.83-2.163h-12.325l-.391-.033-.324-.033-.277-.047-.243-.065-.212-.081-.18-.098-.129-.098-.114-.131-.098-.129-.066-.131-.032-.147-.016-.163-.016-.147.016-.161.016-.163.032-.147.049-.163.033-.161.048-.147.066-.131 2.812-6.227h-5.023v.001zm-24.127 0v2.276l-4.325 8.488h-3.285V8.13l3.512-6.959h4.099zm0 4.797l-.391.699-.243.456-.179.455-.147.422-.114.422-.064.391-.033.39.016.342.064.341.098.309.163.292.195.261.259.243.326.212.049.016v-5.25h.001zm-7.61-2.602h.732l1.187-2.195h-1.919v2.195zm0-2.195v2.195H67.637l-.52.016-.504.033-.471.065-.455.097-.407.114-.357.179-.341.195-.325.211-.309.227-.211.179-.131.146-.13.147-.049.146.016.147.114.081.211.049.244.016h17.577l-1.203 2.31H63.378l-.244.016-.261.016-.163.097-.081.179-.016.195.065.212.081.178.13.147.114.147.195.195.325.211.358.195.39.147.455.08.488.033h14.079l-1.121 2.163H64.305l-.894-.049-.829-.065-.731-.098-.683-.131-.585-.145-.536-.179-.471-.212-.407-.227-.357-.261-.309-.277-.26-.308-.098-.163v-5.04l.211-.358.293-.39.325-.391.358-.357.407-.342.423-.325.471-.293.504-.261.537-.227.569-.211.601-.163.634-.13.667-.081.699-.065h.716l16.404-.015zm0 6.959l-1.919 3.805h1.919V8.13zm-23.82-5.528l.651-1.333h-.651v1.333zm0-1.333v1.333l-4.553 9.284h-5.756l-9.917-7.528-4.048 7.528h-3.301V7.578l3.284-6.309h5.642l9.886 7.707.113-.081 4.13-7.625h4.52zm0 3.512l-.033.065-.211.439-.179.439-.13.439-.081.471-.016.489v.455l.049.471.081.422.097.423.13.39.179.359.114.178v-5.04zM30.567 2.797L31.77 1.74 32.794 0h-2.227v2.797zm-16.649.748l6.195-.016.569.033.52.13.439.211.358.276.277.325.195.358.131.407.049.439-.016.439-.081.456-.163.455-.227.455-.276.439-.341.391-.406.373-.455.325-.521.261-.569.195-.601.131-.667.047-4.406.016v2.277l4.958-.033h1.789l.423-.016.406-.049.391-.065.358-.081.358-.098.341-.098.341-.113.325-.131.309-.131.292-.147.293-.161.26-.179.261-.195.26-.195.227-.211.244-.212.211-.227.228-.228.227-.228.195-.243.179-.261.179-.275.146-.293.146-.308.114-.326.114-.341.065-.375.033-.373-.016-.391-.033-.39-.065-.374-.065-.374-.081-.357-.114-.341-.146-.309-.146-.309-.163-.276-.211-.244-.228-.211-.227-.211-.244-.211-.26-.195-.276-.163-.293-.163-.309-.146-.325-.114-.346-.098-.374-.081-.374-.065-.422-.033-.439-.016h-8.52v2.244zM30.567.001v2.796l-.634.553h-1.025l1.317-1.724h-2.162L28.877 0h1.691v.001zm0 7.576v4.308h-2.244l2.244-4.308zM8.959 3.545h4.959V1.302H7.675L6.39 1.35l-1.154.211-1.073.358-.943.455-.845.569-.699.635-.601.699-.472.764-.325.781-.211.781L0 7.414l.081.781.228.748.374.699.521.649.683.554.829.471 1.008.341 1.171.228L6.244 12l7.674-.033V9.69H7.772l-.601-.064-.504-.131-.423-.212-.358-.259-.276-.326-.211-.373-.131-.407-.081-.422v-.455l.065-.455.114-.456.195-.439.244-.423.292-.407.341-.374.407-.325.455-.26.504-.211.536-.13.619-.016z" fill="#000"/></svg>