<svg xmlns="http://www.w3.org/2000/svg" width="114" height="12" fill="none" xmlns:v="https://vecta.io/nano"><path d="M9.05 5.644c-.189-.065-1.069-.246-4.182-.733-1.632-.258-2.459-.82-2.459-1.666 0-1.219.994-1.836 2.954-1.836 1.001 0 1.795.22 2.359.656.441.333.71.75.801 1.242h2.234C10.439 1.082 8.634 0 5.248 0c-1.502 0-2.7.271-3.561.807C.735 1.396.273 2.254.273 3.426c0 1.283.686 2.149 2.097 2.647.079.024.871.18 4.154.783 1.606.282 2.421.882 2.421 1.782 0 .691-.34 1.213-1.011 1.549-.535.267-1.244.403-2.11.403-2.217 0-3.42-.772-3.582-2.294H0C.133 10.788 2.014 12 5.743 12c1.485 0 2.72-.253 3.673-.751 1.186-.623 1.762-1.558 1.762-2.857 0-1.349-.696-2.248-2.129-2.748zm12.794 1.113c0 1.184-.15 2.013-.46 2.537-.527.861-1.555 1.297-3.056 1.297-1.491 0-2.514-.436-3.038-1.294-.311-.525-.461-1.354-.461-2.539V.329h-2.036v6.494c0 1.478.238 2.592.707 3.312.82 1.237 2.445 1.864 4.829 1.864 2.395 0 4.026-.627 4.846-1.865.468-.719.707-1.832.707-3.311V.329h-2.037v6.428zM26.491.329h2.035v11.34h-2.035V.329zm3.724 1.41h4.418v9.93h2.037v-9.93h4.418V.329H30.215v1.41zm20.62 3.906c-.189-.065-1.07-.246-4.182-.733-1.633-.258-2.459-.82-2.459-1.666 0-1.219.994-1.836 2.955-1.836 1.001 0 1.794.22 2.359.656.44.333.708.75.8 1.242h2.234C52.223 1.082 50.419 0 47.034 0c-1.502 0-2.701.271-3.562.807-.951.589-1.413 1.446-1.413 2.619 0 1.282.686 2.149 2.097 2.647.08.024.873.18 4.155.783 1.605.282 2.42.882 2.42 1.782 0 .691-.339 1.212-1.009 1.549-.536.267-1.246.403-2.111.403-2.216 0-3.42-.772-3.582-2.294h-2.243C41.918 10.788 43.8 12 47.529 12c1.484 0 2.72-.253 3.674-.751 1.186-.624 1.762-1.559 1.762-2.857-.001-1.349-.697-2.248-2.129-2.748zm13.157 1.113c0 1.185-.15 2.014-.458 2.537-.526.861-1.554 1.297-3.057 1.297-1.492 0-2.514-.436-3.039-1.294-.311-.526-.462-1.355-.462-2.539V.329h-2.035v6.494c0 1.479.238 2.592.706 3.312.82 1.237 2.444 1.864 4.829 1.864 2.395 0 4.025-.627 4.847-1.866.467-.718.705-1.832.705-3.31V.329h-2.036v6.428h-.001 0zM75.494.329h-7.036v11.34h2.037V7.183h5.032c1.17 0 2.087-.359 2.721-1.066.566-.626.852-1.415.852-2.345 0-1.008-.259-1.813-.77-2.397C77.717.682 76.763.329 75.494.329zm.921 5.039c-.372.272-.938.405-1.728.405h-4.192V1.739h4.372c1.438 0 2.198.704 2.198 2.033 0 .741-.219 1.278-.65 1.596zM88.447.329H81.41v11.34h2.037V7.183h5.032c1.17 0 2.087-.359 2.722-1.066.565-.626.852-1.415.852-2.345 0-1.006-.259-1.812-.77-2.397C90.67.682 89.717.329 88.447.329zm.921 5.038c-.373.272-.938.405-1.729.405h-4.192V1.739h4.374c1.437 0 2.196.704 2.196 2.033 0 .741-.218 1.277-.649 1.595zm6.936 4.901V.436h-2.036v11.34h9.192v-1.508h-6.937-.219zM110.637.436l-3.299 5.145-.184.287-.183-.287-3.299-5.145h-2.476l4.9 6.946.041.056v4.337h2.036V7.439l.039-.056 4.901-6.946h-2.476z" fill="#333"/></svg>