<svg xmlns="http://www.w3.org/2000/svg" width="122" height="12" fill="none" xmlns:v="https://vecta.io/nano"><path d="M10.472 3.976c.028-.524-.055-1.048-.244-1.538s-.478-.935-.85-1.305S8.561.474 8.07.287 7.055.019 6.531.048H1.313v5.851H0v2.006h1.313v3.582h1.994V7.904h2.472l2.281 3.582h2.543L7.869 7.391a3.58 3.58 0 0 0 2.603-3.415zM3.307 5.899V2.054h3.021a1.92 1.92 0 0 1 1.922 1.922 1.92 1.92 0 0 1-1.922 1.922H3.307zm12.525 5.66h2.018V.096h-2.018v11.463zm7.57-9.552h3.212v9.469h2.018V2.006h3.212V0h-8.442v2.006zm21.696 4.382c0 2.101-1.254 3.355-2.842 3.355s-2.842-1.194-2.842-3.355V.048h-2.018v6.794a4.87 4.87 0 0 0 1.337 3.6 4.87 4.87 0 0 0 3.529 1.513 4.87 4.87 0 0 0 3.529-1.513 4.87 4.87 0 0 0 1.337-3.6V.048h-2.03v6.34zm8.728-6.34v1.899h2.507l-3.988 9.552h2.161l.836-2.161h4.645l.824 2.161h2.197L58.376.024l-4.549.024zm2.245 7.403l1.612-4.096 1.576 4.096h-3.188zm18.675 2.054h-4.298V.048H68.43v11.475h8.358V6.746h-2.03l-.012 2.758zm10.125-6.113c0-.693.633-1.552 2.305-1.552.564-.002 1.122.119 1.633.357s.965.584 1.328 1.016l1.528-1.409c-.56-.585-1.239-1.044-1.99-1.347S88.117.014 87.307.048c-2.496 0-4.537 1.409-4.537 3.451 0 4.681 7.057 2.209 7.057 4.776 0 1.098-1.075 1.707-2.615 1.719a4.43 4.43 0 0 1-3.248-1.552l-1.528 1.445c.592.66 1.315 1.188 2.123 1.552s1.683.555 2.569.561c2.508 0 4.776-1.433 4.776-3.833.012-4.812-7.057-2.209-7.057-4.812l.024.036zm15.355 4.633c-.365-.017-.726.076-1.037.266s-.558.469-.71.801-.2.702-.139 1.061.228.693.48.957.577.446.933.524a1.83 1.83 0 0 0 1.067-.089c.338-.136.629-.369.833-.671a1.82 1.82 0 0 0 .315-1.023c.005-.236-.037-.471-.124-.691s-.215-.421-.379-.59a1.79 1.79 0 0 0-1.264-.546h.024zm9.922 0c-.364-.017-.725.076-1.036.266a1.82 1.82 0 0 0-.71.801c-.151.332-.199.702-.139 1.061a1.83 1.83 0 0 0 1.413 1.481 1.83 1.83 0 0 0 1.901-.76 1.83 1.83 0 0 0 .315-1.023c.006-.237-.035-.472-.121-.693a1.79 1.79 0 0 0-.958-.991c-.218-.093-.452-.142-.689-.143h.024zm9.923 0c-.365-.017-.726.076-1.037.266s-.558.469-.71.801-.199.702-.138 1.061.228.693.479.957.577.446.934.524.728.046 1.066-.089.63-.369.834-.671a1.82 1.82 0 0 0 .315-1.023 1.8 1.8 0 0 0-.12-.693c-.086-.221-.215-.422-.38-.592a1.77 1.77 0 0 0-.579-.399 1.78 1.78 0 0 0-.688-.143h.024z" fill="#1d1d1b"/></svg>