<svg xmlns="http://www.w3.org/2000/svg" width="62" height="20" fill="none" xmlns:v="https://vecta.io/nano"><path d="M6.173 14.184c-1.133 0-1.677-.877-1.394-1.892.588-2.103 4.361-5.221 6.932-5.221 1.877 0 1.733 1.689.634 3.131l-.608.676c-2.18 2.155-4.201 3.306-5.565 3.306zM15.365 0c-3.282.001-6.897 2.023-9.166 3.938l.179.261C9.9 1.713 14.789.096 16.137 2.521c.711 1.28-.497 3.864-2.198 5.907.408-.902.139-2.634-2.233-2.634C7.762 5.793 0 11.054 0 16.436 0 18.593 1.485 20 3.931 20c6.55 0 15.434-10.811 15.434-16.241C19.365 1.841 18.269 0 15.365 0zm8.432 14.184c-.38 0-.698-.135-.896-.378-.207-.257-.269-.619-.17-.995.217-.815 1.089-1.453 1.985-1.453h2.107l-.752 2.827h-2.273zm6.06-8.477c-.604-.747-1.579-1.08-2.278-1.08h-3.831l-.65 2.442h3.613l.346.037a.81.81 0 0 1 .514.287c.149.207.17.515.064.919l-.171.642h-2.276c-1.96 0-4.69 1.415-5.299 3.701-.303 1.14-.038 2.128.551 2.853.584.72 1.685 1.116 2.875 1.116h2.108l-.001.001h2.68l1.256-4.725.925-3.474c.363-1.364-.03-2.232-.425-2.719zm26.313-1.08c-1.036 0-1.998.309-2.782.894-.791.59-1.227 1.299-1.487 2.276-.563 2.117 1.088 3.139 2.418 3.863.952.52 1.775.968 1.598 1.632-.127.477-.333.894-1.505.894h-3.577l-.649 2.442h3.959c1.061 0 2.042-.223 2.831-.833s1.237-1.466 1.514-2.507c.265-.992.085-1.938-.547-2.645-.527-.592-1.288-1.004-1.957-1.368-.857-.465-1.665-.903-1.524-1.435.085-.321.404-.77 1.095-.77h3.479l.65-2.442h-3.516v-.002h.001zm-20.76 0c-1.036 0-1.999.309-2.782.894-.791.59-1.227 1.299-1.488 2.276-.563 2.117 1.09 3.139 2.418 3.863.953.52 1.776.968 1.599 1.632-.127.477-.333.894-1.506.894h-3.576l-.65 2.442h3.959c1.063 0 2.043-.223 2.831-.833s1.237-1.466 1.514-2.507c.265-.992.084-1.938-.547-2.645-.527-.592-1.288-1.004-1.958-1.368-.856-.465-1.665-.903-1.523-1.435.085-.321.404-.77 1.094-.77h3.478l.651-2.442H35.41v-.002h0zm5.402 0l-3.105 11.999h2.623l3.103-11.999h-2.621zm9.602 0c-4.618.017-7.035 3.114-7.803 5.999-.91 3.421.899 6 4.207 6h2.217l.65-2.443h-2.216c-1.238 0-2.941-.982-2.255-3.558.545-2.048 2.527-3.557 4.704-3.557h1.407l.65-2.442h-1.561zm9.087 11.451h.229v-.519h.182c.123 0 .208.013.255.042.083.049.125.151.125.303v.105l.004.042.007.027h.216l-.008-.016c-.007-.022-.011-.045-.012-.069a1.29 1.29 0 0 1-.003-.098v-.097c-.002-.074-.027-.145-.071-.204a.32.32 0 0 0-.226-.13c.081-.012.144-.032.19-.064.086-.056.128-.141.127-.26 0-.165-.067-.276-.202-.333-.076-.031-.195-.046-.357-.046h-.457v1.317zm.657-.71c-.047.019-.121.029-.219.029h-.209v-.477h.196c.128 0 .221.015.279.048s.087.097.087.193c0 .101-.045.17-.135.206zm.668-.792a1.16 1.16 0 0 0-.388-.262c-.145-.06-.302-.09-.459-.087-.327 0-.608.117-.84.349-.112.11-.201.241-.261.387a1.16 1.16 0 0 0-.087.459 1.17 1.17 0 0 0 .346.852 1.14 1.14 0 0 0 .843.353c.33 0 .612-.118.845-.353s.35-.519.35-.852-.117-.613-.349-.846zm-.12.116c.2.202.3.445.3.729s-.1.533-.3.736-.441.305-.725.305a.98.98 0 0 1-.726-.305 1.01 1.01 0 0 1-.223-.337c-.051-.126-.076-.262-.074-.398a1 1 0 0 1 .299-.729c.094-.098.206-.175.331-.228a.98.98 0 0 1 .393-.077c.135-.002.269.024.394.076a.99.99 0 0 1 .332.228z" fill="#000"/></svg>