<svg xmlns="http://www.w3.org/2000/svg" width="27" height="24" fill="none" xmlns:v="https://vecta.io/nano"><path fill-rule="evenodd" d="M13.465 23.996c-2.512.04-4.981-.257-7.329-1.032-1.774-.586-3.294-1.666-4.239-3.298C.517 17.282-.038 14.644.002 12h0c-.04-2.643.516-5.282 1.897-7.666.945-1.632 2.464-2.712 4.238-3.298C8.484.261 10.952-.036 13.465.003c2.512-.039 4.98.258 7.325 1.033 1.774.586 3.294 1.666 4.237 3.298 1.382 2.384 1.937 5.023 1.898 7.666.039 2.644-.516 5.283-1.898 7.666-.944 1.632-2.463 2.713-4.237 3.298-2.345.774-4.813 1.072-7.325 1.032zm4.977-11.972c1.124 2.197 5.064.361 3.882-2.278l-.749-1.742c-1.339-2.831-5.07-.713-4.185 1.661l1.053 2.36zm-3.717 5.081c1.125 2.197 5.035.538 3.853-2.101L15.69 8.062c-1.34-2.831-5.072-.713-4.187 1.661l3.223 7.382zm-5.978.148c1.126 2.197 5.036.538 3.854-2.102L9.711 8.211C8.371 5.379 4.64 7.497 5.524 9.871l3.224 7.382z" fill="#000"/></svg>