<svg xmlns="http://www.w3.org/2000/svg" width="58" height="24" fill="none" xmlns:v="https://vecta.io/nano"><path fill-rule="evenodd" d="M55.379 17.447V24H58V12.206l-.005-.163-.005-.163H58V5.983h-2.293l-.128 1.141c-.98-.797-2.17-1.294-3.427-1.431s-2.525.093-3.654.661h0l-.004.002v-.002c-.659.332-1.253.772-1.761 1.297-.465.48-.855 1.03-1.156 1.632-.453.909-.689 1.91-.689 2.926s.236 2.017.689 2.925 1.112 1.699 1.923 2.31 1.753 1.024 2.752 1.209a6.55 6.55 0 0 0 3.002-.147v-.003c.763-.219 1.483-.576 2.124-1.056zm-2.124-9.136v-.007c1.443.659 2.452 2.158 2.452 3.901 0 2.351-1.835 4.26-4.096 4.26a4.03 4.03 0 0 1-1.724-.395c-.242-.116-.471-.255-.684-.416-1.019-.776-1.682-2.029-1.682-3.441 0-2.349 1.833-4.258 4.094-4.258a3.92 3.92 0 0 1 1.639.356zm-13.27 3.241c0-1.014-.378-1.925-.986-2.577v.004l-.124-.13c-.578-.558-1.336-.895-2.166-.895-.475.005-.943.117-1.369.329s-.797.517-1.088.893V9.17a3.8 3.8 0 0 0-.819 2.382v6.879h-.003-2.618-.003v-6.879c-.001-.974.24-1.933.701-2.791a5.9 5.9 0 0 1 1.938-2.127c.812-.538 1.744-.867 2.714-.957s1.947.062 2.843.441v.001c.308.13.605.287.889.469a5.9 5.9 0 0 1 2.712 4.963v6.879h-2.621v-6.879zm-19.607 6.891c.787.27 1.625.371 2.457.293.97-.09 1.902-.419 2.714-.957s1.477-1.269 1.938-2.127.701-1.817.701-2.791V5.983h-2.621v6.885c0 .913-.313 1.748-.827 2.383v-.012c-.291.376-.663.681-1.088.893s-.893.324-1.369.329c-.708 0-1.364-.245-1.9-.664-.138-.109-.268-.23-.386-.362v.008l-.002-.002v-.006a3.78 3.78 0 0 1-.984-2.573V5.983h-.005-2.621v6.879c0 .988.248 1.961.722 2.828a5.9 5.9 0 0 0 3.27 2.753zM8.742 5.76c-.999-.184-2.026-.134-3.002.147v.001c-.763.219-1.48.575-2.115 1.052V.412h-.009 0H.995v18.019h.009 0 2.293l.127-1.135c.684.556 1.473.968 2.321 1.211v-.004c.36.104.73.177 1.106.218 1.256.137 2.525-.093 3.654-.661v-.005a6.55 6.55 0 0 0 2.912-2.925c.453-.909.689-1.91.689-2.926s-.236-2.017-.689-2.926a6.55 6.55 0 0 0-1.923-2.31c-.811-.611-1.753-1.024-2.752-1.209zM5.745 16.104a3.95 3.95 0 0 0 1.634.354c2.259 0 4.094-1.909 4.094-4.26 0-1.621-.872-3.031-2.154-3.75l-.204-.105a4.03 4.03 0 0 0-1.726-.395c-.584 0-1.141.128-1.644.357h0a4.33 4.33 0 0 0-2.448 3.898 4.33 4.33 0 0 0 .663 2.301c.433.69 1.052 1.243 1.785 1.597v.002z" fill="#000"/></svg>