<svg xmlns="http://www.w3.org/2000/svg" width="33" height="38" fill="none" xmlns:v="https://vecta.io/nano"><path fill-rule="evenodd" d="M28.709 3.979A35.75 35.75 0 0 0 16.022 1.66c-4.34-.004-8.644.782-12.702 2.319a3.33 3.33 0 0 0-1.154.761 1.59 1.59 0 0 0-.511 1.021c0 3.504 1.154 8.177 3.197 13.177 2.437 5.819 5.678 11.267 9.627 16.185.178.239.409.434.675.568s.559.206.858.208.589-.071.854-.203.497-.323.678-.558a67.79 67.79 0 0 0 9.633-16.195c2.074-4.985 3.212-9.673 3.212-13.157v-.026a1.53 1.53 0 0 0-.511-1.021c-.333-.332-.731-.591-1.17-.761zM2.743 2.431C6.985.821 11.485-.002 16.022 0l.026.015a37.41 37.41 0 0 1 13.279 2.426 4.99 4.99 0 0 1 1.726 1.154c.593.555.948 1.319.991 2.13v.061c0 3.662-1.18 8.58-3.34 13.79a69.54 69.54 0 0 1-9.862 16.614 3.61 3.61 0 0 1-1.253 1.019c-.489.241-1.027.367-1.572.37a3.62 3.62 0 0 1-2.824-1.42 69.75 69.75 0 0 1-9.857-16.589C1.185 14.367 0 9.449 0 5.782v-.066c.044-.813.405-1.576 1.006-2.125.491-.504 1.083-.898 1.737-1.159zm8.786 4.229c.128 0 .189.041.189.117l.107.036v-.679h-.107c0 .077-.061.112-.189.112h-2.16v.107c.02-.004.041-.004.061 0 .01.009.018.02.024.032s.008.026.007.039v2.293c.001.013-.001.026-.006.037s-.014.022-.024.029c-.017.015-.039.024-.061.026v.107h2.355c.007.001.015.003.021.006s.012.008.017.014.008.012.011.019.003.015.002.022h.107v-.633h-.107c-.001.018-.006.035-.015.05s-.021.028-.036.037c-.035.026-.079.039-.123.036h-1.558v-.72h.889c.063-.007.126-.007.189 0 .009.001.018.004.026.009s.014.012.019.019.008.017.009.026 0 .019-.003.027h.117v-.644h-.107c0 .046-.015.082-.046.082-.051.007-.102.007-.153 0h-.94V6.66h1.486zM5.784 8.724c-.004-.011-.006-.024-.005-.036v-.904h1.629v.919c.001.012-.001.025-.005.036s-.011.022-.02.03c-.019.016-.042.025-.066.026v.107h.771v-.107c-.024-.001-.048-.01-.066-.026-.026-.01-.026-.036-.026-.066V6.425c-.002-.013 0-.026.004-.039s.012-.024.022-.033c.022-.005.045-.005.066 0v-.107h-.771v.107c.022-.005.045-.005.066 0 .017.02.027.045.026.072v.858H5.784v-.858c-.001-.026.008-.052.026-.072.022-.005.045-.005.066 0v-.107h-.771v.107c.02-.005.041-.005.061 0 .01.009.018.02.024.032s.008.026.007.039v2.263c.001.013-.001.026-.006.037s-.014.022-.024.029c-.017.016-.038.025-.061.026v.107h.766V8.78c-.024-.001-.048-.01-.066-.026-.009-.008-.016-.019-.02-.03zm9.564-1.946c0-.077-.061-.117-.189-.117h-1.481v.608h.935c.051.007.102.007.153 0 .017-.006.031-.017.04-.032s.013-.032.011-.05h.107v.644h-.123c.004-.008.006-.017.006-.027s-.003-.018-.007-.026-.011-.015-.019-.02-.017-.008-.026-.009c-.063-.007-.126-.007-.189 0h-.889v.72h1.532c.044.001.087-.011.123-.036.014-.009.026-.022.034-.038s.012-.032.012-.049h.112v.633h-.112c.002-.007.001-.014 0-.022s-.005-.014-.009-.02a.05.05 0 0 0-.016-.014c-.006-.004-.013-.006-.021-.006h-2.334V8.81c.023-.002.044-.011.061-.026.011-.007.019-.017.024-.029s.008-.025.006-.037V6.425c.001-.013-.002-.027-.007-.039s-.013-.023-.024-.032c-.02-.004-.041-.004-.061 0v-.107h2.161c.128 0 .189-.036.189-.112h.112v.679l-.112-.036zm1.455 1.231v-.051l-.041-.01-.276.679.082.061c.009-.012.021-.021.034-.027s.028-.009.043-.009a.64.64 0 0 1 .138.046l.286.097c.121.038.243.069.368.092.136.026.275.04.414.041.147-.001.294-.011.439-.031s.294-.062.429-.128a.93.93 0 0 0 .327-.271c.09-.126.135-.279.128-.434.005-.077-.005-.154-.031-.227s-.065-.14-.117-.197c-.104-.105-.232-.184-.373-.23a2.33 2.33 0 0 0-.511-.112l-.511-.066c-.127-.017-.252-.048-.373-.092-.042-.012-.079-.038-.106-.072s-.041-.078-.042-.122a.23.23 0 0 1 .046-.143.41.41 0 0 1 .138-.092c.062-.027.127-.044.194-.051a1.63 1.63 0 0 1 .23 0 2.19 2.19 0 0 1 .572.071 1.02 1.02 0 0 1 .378.179c.027.016.047.041.056.072-.003.024-.003.048 0 .071l.107.036.306-.572-.066-.066-.061.036c-.023.007-.048.007-.072 0-.047-.006-.092-.021-.133-.046a1.75 1.75 0 0 0-.23-.102c-.111-.041-.226-.073-.342-.097-.168-.034-.339-.05-.511-.046a1.53 1.53 0 0 0-.904.23.72.72 0 0 0-.342.613.51.51 0 0 0 .153.403.99.99 0 0 0 .373.22 2.33 2.33 0 0 0 .485.107l.511.066a1.87 1.87 0 0 1 .373.097c.042.012.08.038.106.072s.041.078.042.122a.23.23 0 0 1-.087.184.71.71 0 0 1-.204.112c-.08.024-.162.041-.245.051h-.215a1.47 1.47 0 0 1-.25-.031c-.109-.02-.216-.047-.322-.082a1.15 1.15 0 0 1-.276-.128c-.032-.016-.06-.04-.08-.069s-.033-.064-.037-.099c-.003-.019-.003-.038 0-.056zm5.799-1.231c0-.077-.066-.117-.189-.117h-1.486v.608h.94a.51.51 0 0 0 .148 0c.036 0 .051-.036.051-.082h.107v.644h-.117c.003-.009.004-.018.003-.027s-.004-.018-.009-.026-.011-.015-.019-.019-.017-.008-.026-.009c-.063-.007-.126-.007-.189 0h-.889v.72h1.558c.044.003.087-.01.123-.036.015-.009.027-.022.036-.037s.014-.032.015-.05h.107v.633h-.107c.001-.007 0-.015-.002-.022s-.006-.014-.011-.019-.011-.01-.017-.014-.014-.006-.021-.006h-2.355V8.81c.023-.002.044-.011.061-.026.011-.007.019-.017.025-.029s.007-.025.006-.037V6.425c.001-.013-.002-.027-.007-.039s-.014-.023-.024-.032c-.02-.004-.041-.004-.061 0v-.107h2.16c.123 0 .189-.036.189-.112h.128v.679l-.128-.036zm1.376 1.91c0 .061-.036.092-.107.092v.123h.725v-.107c-.082 0-.128-.031-.128-.092V6.931L26 8.539l.133.138c.026.024.045.054.056.087 0 .031-.041.031-.041.031v.107h.792v-.107c-.072 0-.107-.031-.107-.092V6.425c0-.061.036-.092.107-.092v-.107h-.741v.107c.082 0 .123.031.123.092v1.634l-1.461-1.532c-.092-.087-.133-.133-.133-.163s.01-.031.041-.031v-.107h-.899v.107c.072 0 .107.031.107.092v2.263zm-7.955 4.827v4.847l-.012.013-.938-.983-2.283.557v-3.412a3.48 3.48 0 0 1 .122-1.149c.039-.089.095-.17.165-.238s.153-.12.244-.156a2.21 2.21 0 0 1 .925-.199h.577v-.327H8.657v.327h.572a2.2 2.2 0 0 1 .935.204.81.81 0 0 1 .398.352 3.45 3.45 0 0 1 .128 1.185v7.835a2.31 2.31 0 0 1-.214 1.333 1.6 1.6 0 0 1-1.226.409h-.592v.327h6.19v-.327h-.577c-.318.002-.632-.068-.919-.204a.78.78 0 0 1-.404-.352c-.114-.384-.159-.785-.133-1.185v-3.575l-1.634-.409h4.817l-.925.94.95 3.892v-4.832-.026l.975.965 2.237-.557v3.575a2.3 2.3 0 0 1-.245 1.328c-.162.151-.354.265-.564.337a1.57 1.57 0 0 1-.652.077h-.572v.327h6.19v-.327h-.572a2.22 2.22 0 0 1-.935-.204c-.167-.069-.306-.194-.393-.352-.114-.384-.159-.785-.133-1.185v-7.809c-.022-.387.016-.774.112-1.149a.75.75 0 0 1 .424-.393 2.21 2.21 0 0 1 .924-.199h.572v-.327h-6.19v.327h.572a2.09 2.09 0 0 1 .919.204.86.86 0 0 1 .414.352c.108.385.152.786.128 1.185v3.412l1.634.414h-4.847l.975-.97-.975-3.876z" fill="#000"/></svg>