<svg xmlns="http://www.w3.org/2000/svg" width="122" height="21" fill="#000" xmlns:v="https://vecta.io/nano"><path d="M47.563 1.844c0-.489.194-.958.54-1.304a1.84 1.84 0 0 1 2.606 0 1.85 1.85 0 0 1 .54 1.304c-.018.477-.22.929-.564 1.26s-.802.516-1.28.516-.936-.185-1.28-.516-.546-.783-.564-1.26zm29.101 12.294c0-1.023.824-1.85 1.84-1.85a1.85 1.85 0 0 1 1.849 1.849 1.85 1.85 0 0 1-1.849 1.849c-1.014 0-1.84-.828-1.84-1.849"/><path d="M17.32 13.338c-1.587 0-2.691-1.261-2.691-3.063s1.104-3.06 2.692-3.06c1.596 0 2.711 1.259 2.711 3.06 0 1.831-1.091 3.063-2.713 3.063zm0-8.816c-3.358 0-5.796 2.42-5.796 5.753s2.439 5.752 5.796 5.752c3.372 0 5.819-2.419 5.819-5.751s-2.447-5.754-5.818-5.754h-.001zm26.684 6.041a2.74 2.74 0 0 0-.439-.62l-.103-.107.108-.103a4.61 4.61 0 0 0 .463-.579l2.966-4.406h-3.6l-2.227 3.447c-.126.185-.38.277-.761.277h-.507V1.958c0-1.303-.813-1.48-1.689-1.48h-1.502l.004 15.381h3.189v-4.614h.299c.363 0 .61.042.724.24l1.759 3.32c.492.901.981 1.054 1.902 1.054h2.443l-1.82-3.009-1.207-2.285h-.001zm15.48-6.067c-1.623 0-2.657.721-3.238 1.331l-.193.195-.069-.266c-.169-.653-.745-1.012-1.609-1.012h-1.429l.009 11.108h3.167v-5.12c0-.501.064-.935.198-1.331.352-1.2 1.335-1.946 2.564-1.946.988 0 1.375.523 1.375 1.87v4.839c0 1.15.533 1.688 1.684 1.688h1.507l-.005-7.066c0-2.806-1.37-4.29-3.962-4.29v-.001zm-10.028.253h-1.501l.01 8.59v2.519h1.601l.056.003.747-.003h.742v-.004h.005l.006-9.416c0-1.136-.543-1.687-1.666-1.687l-.001-.001zm-19.698 8.588c-1.587 0-2.692-1.261-2.692-3.063s1.105-3.06 2.693-3.06 2.711 1.259 2.711 3.06c0 1.831-1.091 3.063-2.711 3.063h-.001zm0-8.816c-3.361 0-5.8 2.42-5.8 5.753s2.439 5.752 5.801 5.752 5.819-2.419 5.819-5.751-2.452-5.754-5.819-5.754m67.884 8.817c-1.587 0-2.693-1.261-2.693-3.063s1.107-3.06 2.693-3.06c1.594 0 2.713 1.259 2.713 3.06 0 1.831-1.091 3.063-2.713 3.063zm0-8.816c-3.361 0-5.799 2.42-5.799 5.753s2.438 5.752 5.799 5.752c3.368 0 5.82-2.419 5.82-5.751s-2.452-5.754-5.82-5.754z"/><path d="M70.131 12.849c-1.732 0-2.348-1.51-2.348-2.926 0-.624.158-2.656 2.182-2.656 1.005 0 2.344.288 2.344 2.76 0 2.333-1.185 2.822-2.178 2.822zm3.823-8.129c-.601 0-1.063.24-1.295.678l-.087.169-.146-.128c-.511-.442-1.427-.967-2.915-.967-2.962 0-4.955 2.225-4.955 5.533s2.063 5.618 5.014 5.618c1.008 0 1.805-.236 2.436-.714l.244-.184v.308c0 1.484-.959 2.303-2.698 2.303-.846 0-1.615-.205-2.131-.393-.67-.203-1.065-.035-1.336.639l-.252.621-.356.909.219.117c1.114.591 2.564.944 3.873.944 2.696 0 5.846-1.38 5.846-5.265l.012-10.189h-1.472zM5.527 13.211l-2.578-.003v-3.081c0-.66.255-1.001.819-1.081h1.759c1.254 0 2.066.791 2.067 2.071-.001 1.315-.792 2.093-2.067 2.093v.001zM2.949 4.898v-.811c0-.71.3-1.048.959-1.091h1.32c1.131 0 1.809.677 1.809 1.81 0 .863-.465 1.87-1.768 1.87h-2.32V4.898zm5.869 3.076l-.466-.262.407-.348c.474-.407 1.266-1.322 1.266-2.901 0-2.419-1.874-3.98-4.777-3.98h-3.69C1.143.498.75.672.46.97A1.62 1.62 0 0 0 0 2.08v13.723h5.313c3.226 0 5.308-1.756 5.308-4.476 0-1.465-.673-2.716-1.804-3.353zm108.779-3.44a4.36 4.36 0 0 0-3.4 1.647l-.228.29-.18-.325c-.588-1.069-1.597-1.612-3-1.612-1.472 0-2.46.822-2.918 1.309l-.3.325-.116-.427c-.167-.616-.715-.954-1.544-.954h-1.332l-.012 11.066h3.023v-4.885c0-.429.054-.851.16-1.294.289-1.181 1.082-2.451 2.416-2.324.822.08 1.225.715 1.225 1.942v6.56h3.045v-4.885c0-.535.05-.936.171-1.336.244-1.127 1.073-2.283 2.359-2.283.932 0 1.276.526 1.276 1.944v4.942c0 1.117.499 1.618 1.617 1.618h1.422l.003-7.065c0-2.823-1.243-4.254-3.687-4.254zm-27.516 7.477c-.009.011-1.309 1.383-3.023 1.383-1.561 0-3.138-.958-3.138-3.095 0-1.846 1.222-3.136 2.973-3.136.567 0 1.214.203 1.316.546l.014.058a1.11 1.11 0 0 0 1.078.818l1.656.003v-1.45c0-1.91-2.43-2.603-4.064-2.603-3.497 0-6.034 2.434-6.034 5.787s2.509 5.782 5.97 5.782c3.001 0 4.634-1.973 4.65-1.992l.087-.108-1.312-2.176-.173.184z"/></svg>